STARTFONT 2.1
COMMENT Recovered from arc.ast's:METS AST (MIT CADR AST source recovered from ARC!!!)
FONT MIT-CADR-METS
SIZE 25 72 72
FONTBOUNDINGBOX 28 25 0 -5
STARTPROPERTIES 2
FONT_ASCENT 20
FONT_DESCENT 5
ENDPROPERTIES
CHARS 96
STARTCHAR C0000
ENCODING -1 0
SWIDTH 320 0
DWIDTH 8 0
BBX 8 25 0 -5
BITMAP
C3
E7
3C
18
3C
E7
C3
E7
3C
18
3C
E7
C3
E7
3C
18
3C
E7
C3
E7
3C
18
3C
E7
C3
ENDCHAR
STARTCHAR C0018
ENCODING -1 24
SWIDTH 1120 0
DWIDTH 28 0
BBX 28 25 0 -5
BITMAP
00000000
00000000
00000000
00000000
00000000
00000000
00000000
00000000
00000000
00000000
00000000
00000000
00000000
00000000
00000000
00000000
00000000
00000000
00000000
00000000
00000000
00000000
00000000
FFFFFFF0
FFFFFFF0
ENDCHAR
STARTCHAR C0020
ENCODING -1 32
SWIDTH 320 0
DWIDTH 8 0
BBX 1 25 0 -5
BITMAP
00
00
00
00
00
00
00
00
00
00
00
00
00
00
00
00
00
00
00
00
00
00
00
00
00
ENDCHAR
STARTCHAR C0021
ENCODING -1 33
SWIDTH 240 0
DWIDTH 6 0
BBX 2 25 2 -5
BITMAP
00
00
00
C0
C0
C0
C0
C0
C0
C0
C0
C0
00
00
00
C0
C0
C0
00
00
00
00
00
00
00
ENDCHAR
STARTCHAR C0022
ENCODING -1 34
SWIDTH 440 0
DWIDTH 11 0
BBX 7 25 2 -5
BITMAP
00
00
00
C6
C6
C6
C6
C6
C6
00
00
00
00
00
00
00
00
00
00
00
00
00
00
00
00
ENDCHAR
STARTCHAR C0023
ENCODING -1 35
SWIDTH 640 0
DWIDTH 16 0
BBX 14 25 1 -5
BITMAP
0000
0000
0000
0318
0318
0630
0630
7FFC
7FFC
0C60
18C0
18C0
FFF8
FFF8
3180
3180
6300
6300
0000
0000
0000
0000
0000
0000
0000
ENDCHAR
STARTCHAR C0024
ENCODING -1 36
SWIDTH 600 0
DWIDTH 15 0
BBX 13 25 1 -5
BITMAP
0000
0300
0300
0FE0
3FF0
7318
6318
6300
7B00
3FC0
0FF0
0378
0318
6318
F318
E338
7FF0
1FC0
0300
0300
0000
0000
0000
0000
0000
ENDCHAR
STARTCHAR C0025
ENCODING -1 37
SWIDTH 720 0
DWIDTH 18 0
BBX 16 25 1 -5
BITMAP
0000
0000
7838
FC38
CC70
CC70
FCE0
78E0
01C0
01C0
0380
0380
071E
073F
0E33
0E33
1C3F
1C1E
0000
0000
0000
0000
0000
0000
0000
ENDCHAR
STARTCHAR C0026
ENCODING -1 38
SWIDTH 720 0
DWIDTH 18 0
BBX 17 25 1 -5
BITMAP
000000
000000
000000
0F0000
1F8000
30C000
30C000
30C000
1F8000
0F0000
1E3F00
7F1E00
E38C00
C1D800
C0F000
E0F980
7FDF80
3F0F00
000000
000000
000000
000000
000000
000000
000000
ENDCHAR
STARTCHAR C0027
ENCODING -1 39
SWIDTH 240 0
DWIDTH 6 0
BBX 2 25 2 -5
BITMAP
00
00
00
C0
C0
C0
C0
C0
C0
00
00
00
00
00
00
00
00
00
00
00
00
00
00
00
00
ENDCHAR
STARTCHAR C0028
ENCODING -1 40
SWIDTH 440 0
DWIDTH 11 0
BBX 7 25 2 -5
BITMAP
00
06
0C
18
30
30
60
60
C0
C0
C0
C0
C0
C0
C0
60
60
30
30
18
0C
06
00
00
00
ENDCHAR
STARTCHAR C0029
ENCODING -1 41
SWIDTH 440 0
DWIDTH 11 0
BBX 7 25 2 -5
BITMAP
00
C0
60
30
18
18
0C
0C
06
06
06
06
06
06
06
0C
0C
18
18
30
60
C0
00
00
00
ENDCHAR
STARTCHAR C002A
ENCODING -1 42
SWIDTH 480 0
DWIDTH 12 0
BBX 10 25 1 -5
BITMAP
0000
0000
0000
0C00
CCC0
EDC0
3F00
1E00
3F00
EDC0
CCC0
0C00
0000
0000
0000
0000
0000
0000
0000
0000
0000
0000
0000
0000
0000
ENDCHAR
STARTCHAR C002B
ENCODING -1 43
SWIDTH 560 0
DWIDTH 14 0
BBX 10 25 2 -5
BITMAP
0000
0000
0000
0000
0000
0000
0C00
0C00
0C00
0C00
FFC0
FFC0
0C00
0C00
0C00
0C00
0000
0000
0000
0000
0000
0000
0000
0000
0000
ENDCHAR
STARTCHAR C002C
ENCODING -1 44
SWIDTH 280 0
DWIDTH 7 0
BBX 4 25 1 -5
BITMAP
00
00
00
00
00
00
00
00
00
00
00
00
00
00
00
70
70
70
30
30
60
C0
00
00
00
ENDCHAR
STARTCHAR C002D
ENCODING -1 45
SWIDTH 480 0
DWIDTH 12 0
BBX 8 25 2 -5
BITMAP
00
00
00
00
00
00
00
00
00
00
FF
FF
00
00
00
00
00
00
00
00
00
00
00
00
00
ENDCHAR
STARTCHAR C002E
ENCODING -1 46
SWIDTH 280 0
DWIDTH 7 0
BBX 3 25 2 -5
BITMAP
00
00
00
00
00
00
00
00
00
00
00
00
00
00
00
E0
E0
E0
00
00
00
00
00
00
00
ENDCHAR
STARTCHAR C002F
ENCODING -1 47
SWIDTH 480 0
DWIDTH 12 0
BBX 8 25 2 -5
BITMAP
00
03
03
03
06
06
0C
0C
0C
18
18
18
30
30
30
60
60
C0
C0
C0
00
00
00
00
00
ENDCHAR
STARTCHAR C0030
ENCODING -1 48
SWIDTH 600 0
DWIDTH 15 0
BBX 11 25 2 -5
BITMAP
0000
0000
0000
0E00
3F80
71C0
60C0
C060
C060
C060
C060
C060
C060
C060
60C0
71C0
3F80
0E00
0000
0000
0000
0000
0000
0000
0000
ENDCHAR
STARTCHAR C0031
ENCODING -1 49
SWIDTH 600 0
DWIDTH 15 0
BBX 7 25 4 -5
BITMAP
00
00
00
18
38
F8
F8
18
18
18
18
18
18
18
18
18
7E
7E
00
00
00
00
00
00
00
ENDCHAR
STARTCHAR C0032
ENCODING -1 50
SWIDTH 600 0
DWIDTH 15 0
BBX 12 25 1 -5
BITMAP
0000
0000
0000
0780
1FE0
3070
7830
3030
0070
01E0
07C0
0F00
1E00
3810
6030
C070
FFF0
FFF0
0000
0000
0000
0000
0000
0000
0000
ENDCHAR
STARTCHAR C0033
ENCODING -1 51
SWIDTH 600 0
DWIDTH 15 0
BBX 13 25 1 -5
BITMAP
0000
0000
0000
0780
1FE0
3070
7830
3070
00E0
03C0
03E0
0070
0038
6018
F038
6070
3FE0
1F80
0000
0000
0000
0000
0000
0000
0000
ENDCHAR
STARTCHAR C0034
ENCODING -1 52
SWIDTH 600 0
DWIDTH 15 0
BBX 13 25 1 -5
BITMAP
0000
0000
0000
0060
00E0
01E0
0360
0660
0C60
1860
3060
6060
FFF8
FFF8
0060
0060
00F0
01F8
0000
0000
0000
0000
0000
0000
0000
ENDCHAR
STARTCHAR C0035
ENCODING -1 53
SWIDTH 600 0
DWIDTH 15 0
BBX 12 25 1 -5
BITMAP
0000
0000
0000
1FF0
1FE0
1800
3800
3000
3780
7FE0
7870
0030
0030
6030
F030
6070
3FE0
1F80
0000
0000
0000
0000
0000
0000
0000
ENDCHAR
STARTCHAR C0036
ENCODING -1 54
SWIDTH 600 0
DWIDTH 15 0
BBX 11 25 2 -5
BITMAP
0000
0000
0000
1F00
3FC0
70E0
6040
C000
CF80
FFC0
E0E0
C060
C060
C060
C060
60E0
7FC0
3F80
0000
0000
0000
0000
0000
0000
0000
ENDCHAR
STARTCHAR C0037
ENCODING -1 55
SWIDTH 600 0
DWIDTH 15 0
BBX 12 25 2 -5
BITMAP
0000
0000
0000
FFF0
FFF0
C030
8060
00C0
0180
0300
0600
0C00
1800
1800
3000
3000
6000
6000
0000
0000
0000
0000
0000
0000
0000
ENDCHAR
STARTCHAR C0038
ENCODING -1 56
SWIDTH 600 0
DWIDTH 15 0
BBX 12 25 2 -5
BITMAP
0000
0000
0000
0F00
3FC0
70E0
6060
6060
30C0
1F80
3FC0
70E0
E070
C030
C030
E070
7FE0
1F80
0000
0000
0000
0000
0000
0000
0000
ENDCHAR
STARTCHAR C0039
ENCODING -1 57
SWIDTH 600 0
DWIDTH 15 0
BBX 11 25 2 -5
BITMAP
0000
0000
0000
1F00
7FC0
E0E0
C060
C060
C060
E0E0
7FE0
3F60
0060
0060
4060
E0E0
7FC0
3F00
0000
0000
0000
0000
0000
0000
0000
ENDCHAR
STARTCHAR C003A
ENCODING -1 58
SWIDTH 280 0
DWIDTH 7 0
BBX 3 25 2 -5
BITMAP
00
00
00
00
00
00
00
00
00
E0
E0
E0
00
00
00
E0
E0
E0
00
00
00
00
00
00
00
ENDCHAR
STARTCHAR C003B
ENCODING -1 59
SWIDTH 280 0
DWIDTH 7 0
BBX 4 25 1 -5
BITMAP
00
00
00
00
00
00
00
00
00
70
70
70
00
00
00
70
70
70
30
30
60
C0
00
00
00
ENDCHAR
STARTCHAR C003C
ENCODING -1 60
SWIDTH 520 0
DWIDTH 13 0
BBX 9 25 2 -5
BITMAP
0000
0000
0000
0180
0300
0600
0C00
1800
3000
6000
C000
6000
3000
1800
0C00
0600
0300
0180
0000
0000
0000
0000
0000
0000
0000
ENDCHAR
STARTCHAR C003D
ENCODING -1 61
SWIDTH 520 0
DWIDTH 13 0
BBX 9 25 2 -5
BITMAP
0000
0000
0000
0000
0000
0000
0000
FF80
FF80
0000
0000
FF80
FF80
0000
0000
0000
0000
0000
0000
0000
0000
0000
0000
0000
0000
ENDCHAR
STARTCHAR C003E
ENCODING -1 62
SWIDTH 520 0
DWIDTH 13 0
BBX 9 25 2 -5
BITMAP
0000
0000
0000
C000
6000
3000
1800
0C00
0600
0300
0180
0300
0600
0C00
1800
3000
6000
C000
0000
0000
0000
0000
0000
0000
0000
ENDCHAR
STARTCHAR C003F
ENCODING -1 63
SWIDTH 560 0
DWIDTH 14 0
BBX 10 25 2 -5
BITMAP
0000
0000
0000
1E00
7F80
C1C0
E0C0
41C0
0380
0600
0C00
1800
1800
1800
0000
0000
1800
1800
0000
0000
0000
0000
0000
0000
0000
ENDCHAR
STARTCHAR C0040
ENCODING -1 64
SWIDTH 600 0
DWIDTH 15 0
BBX 13 25 1 -5
BITMAP
0000
0000
0000
0FE0
3FF0
7038
6018
C3F8
C7F8
CE18
CC18
CE38
C7F0
C3E0
6000
7010
3FF8
0FE0
0000
0000
0000
0000
0000
0000
0000
ENDCHAR
STARTCHAR C0041
ENCODING -1 65
SWIDTH 600 0
DWIDTH 15 0
BBX 15 25 0 -5
BITMAP
0000
0000
0000
0380
0380
0380
06C0
06C0
0C60
0C60
0C60
1830
1FF0
1FF0
3018
3018
783C
FC7E
0000
0000
0000
0000
0000
0000
0000
ENDCHAR
STARTCHAR C0042
ENCODING -1 66
SWIDTH 600 0
DWIDTH 15 0
BBX 13 25 1 -5
BITMAP
0000
0000
0000
FF80
7FE0
3070
3030
3070
30E0
3FC0
3FE0
3070
3038
3018
3018
3038
7FF0
FFE0
0000
0000
0000
0000
0000
0000
0000
ENDCHAR
STARTCHAR C0043
ENCODING -1 67
SWIDTH 600 0
DWIDTH 15 0
BBX 13 25 1 -5
BITMAP
0000
0000
0000
07B0
1FF0
3070
6030
6010
C000
C000
C000
C000
C000
C010
6038
7070
3FE0
0F80
0000
0000
0000
0000
0000
0000
0000
ENDCHAR
STARTCHAR C0044
ENCODING -1 68
SWIDTH 600 0
DWIDTH 15 0
BBX 13 25 1 -5
BITMAP
0000
0000
0000
FF80
7FE0
3070
3030
3018
3018
3018
3018
3018
3018
3018
3030
3070
7FE0
FF80
0000
0000
0000
0000
0000
0000
0000
ENDCHAR
STARTCHAR C0045
ENCODING -1 69
SWIDTH 560 0
DWIDTH 14 0
BBX 12 25 1 -5
BITMAP
0000
0000
0000
FFE0
7FE0
3060
3020
3100
3300
3F00
3F00
3300
3100
3010
3030
3070
7FF0
FFF0
0000
0000
0000
0000
0000
0000
0000
ENDCHAR
STARTCHAR C0046
ENCODING -1 70
SWIDTH 520 0
DWIDTH 13 0
BBX 11 25 1 -5
BITMAP
0000
0000
0000
FFE0
7FE0
3060
3020
3100
3300
3F00
3F00
3300
3100
3000
3000
3000
7800
FC00
0000
0000
0000
0000
0000
0000
0000
ENDCHAR
STARTCHAR C0047
ENCODING -1 71
SWIDTH 600 0
DWIDTH 15 0
BBX 13 25 1 -5
BITMAP
0000
0000
0000
0F80
3FE0
7070
6030
C000
C000
C000
C3F8
C3F8
C030
C030
6070
70F0
3FF0
0FB0
0000
0000
0000
0000
0000
0000
0000
ENDCHAR
STARTCHAR C0048
ENCODING -1 72
SWIDTH 680 0
DWIDTH 17 0
BBX 15 25 1 -5
BITMAP
0000
0000
0000
FC7E
783C
3018
3018
3018
3018
3FF8
3FF8
3018
3018
3018
3018
3018
783C
FC7E
0000
0000
0000
0000
0000
0000
0000
ENDCHAR
STARTCHAR C0049
ENCODING -1 73
SWIDTH 320 0
DWIDTH 8 0
BBX 6 25 1 -5
BITMAP
00
00
00
FC
78
30
30
30
30
30
30
30
30
30
30
30
78
FC
00
00
00
00
00
00
00
ENDCHAR
STARTCHAR C004A
ENCODING -1 74
SWIDTH 480 0
DWIDTH 12 0
BBX 11 25 0 -5
BITMAP
0000
0000
0000
07E0
03C0
0180
0180
0180
0180
0180
0180
0180
0180
6180
F180
6380
3F00
1E00
0000
0000
0000
0000
0000
0000
0000
ENDCHAR
STARTCHAR C004B
ENCODING -1 75
SWIDTH 640 0
DWIDTH 16 0
BBX 15 25 1 -5
BITMAP
0000
0000
0000
FC7C
7830
3060
30C0
3180
3300
3E00
3E00
3700
3380
31C0
30E0
3070
7838
FCFE
0000
0000
0000
0000
0000
0000
0000
ENDCHAR
STARTCHAR C004C
ENCODING -1 76
SWIDTH 560 0
DWIDTH 14 0
BBX 12 25 1 -5
BITMAP
0000
0000
0000
FC00
7800
3000
3000
3000
3000
3000
3000
3000
3000
3010
3030
3070
7FF0
FFF0
0000
0000
0000
0000
0000
0000
0000
ENDCHAR
STARTCHAR C004D
ENCODING -1 77
SWIDTH 920 0
DWIDTH 23 0
BBX 21 25 1 -5
BITMAP
000000
000000
000000
FC01F8
7C01F0
360360
360360
330660
330660
330660
318C60
318C60
318C60
30D860
30D860
307060
7870F0
FC21F8
000000
000000
000000
000000
000000
000000
000000
ENDCHAR
STARTCHAR C004E
ENCODING -1 78
SWIDTH 720 0
DWIDTH 18 0
BBX 16 25 1 -5
BITMAP
0000
0000
0000
FC3F
7C1E
360C
360C
330C
330C
318C
318C
318C
30CC
30CC
306C
306C
783C
FC3C
0000
0000
0000
0000
0000
0000
0000
ENDCHAR
STARTCHAR C004F
ENCODING -1 79
SWIDTH 600 0
DWIDTH 15 0
BBX 13 25 1 -5
BITMAP
0000
0000
0000
0F80
3FE0
7070
6030
E038
C018
C018
C018
C018
C018
E038
6030
7070
3FE0
1F80
0000
0000
0000
0000
0000
0000
0000
ENDCHAR
STARTCHAR C0050
ENCODING -1 80
SWIDTH 560 0
DWIDTH 14 0
BBX 12 25 1 -5
BITMAP
0000
0000
0000
FF80
7FE0
3070
3030
3030
3070
3FE0
3F80
3000
3000
3000
3000
3000
7800
FC00
0000
0000
0000
0000
0000
0000
0000
ENDCHAR
STARTCHAR C0051
ENCODING -1 81
SWIDTH 600 0
DWIDTH 15 0
BBX 13 25 1 -5
BITMAP
0000
0000
0000
0F80
3FE0
7070
6030
E038
C018
C018
C018
C018
C018
E038
6230
7770
3FE0
1F80
30D8
6070
0000
0000
0000
0000
0000
ENDCHAR
STARTCHAR C0052
ENCODING -1 82
SWIDTH 600 0
DWIDTH 15 0
BBX 14 25 1 -5
BITMAP
0000
0000
0000
FFC0
7FE0
3070
3030
3030
3070
3FE0
3FC0
30E0
3070
3030
3030
3030
7838
FC1C
0000
0000
0000
0000
0000
0000
0000
ENDCHAR
STARTCHAR C0053
ENCODING -1 83
SWIDTH 520 0
DWIDTH 13 0
BBX 11 25 1 -5
BITMAP
0000
0000
0000
0F60
3FE0
7060
6060
6000
7800
3F00
0FC0
01E0
C060
C060
E060
F0E0
DFC0
CF00
0000
0000
0000
0000
0000
0000
0000
ENDCHAR
STARTCHAR C0054
ENCODING -1 84
SWIDTH 560 0
DWIDTH 14 0
BBX 12 25 1 -5
BITMAP
0000
0000
0000
FFF0
FFF0
C630
8610
0600
0600
0600
0600
0600
0600
0600
0600
0600
0F00
1F80
0000
0000
0000
0000
0000
0000
0000
ENDCHAR
STARTCHAR C0055
ENCODING -1 85
SWIDTH 680 0
DWIDTH 17 0
BBX 15 25 1 -5
BITMAP
0000
0000
0000
FC7E
783C
3018
3018
3018
3018
3018
3018
3018
3018
3018
3018
3830
1FF0
0FE0
0000
0000
0000
0000
0000
0000
0000
ENDCHAR
STARTCHAR C0056
ENCODING -1 86
SWIDTH 760 0
DWIDTH 19 0
BBX 17 25 1 -5
BITMAP
000000
000000
000000
FC1F80
780F00
300600
300600
180C00
180C00
0C1800
0C1800
0C1800
063000
063000
036000
036000
01C000
01C000
000000
000000
000000
000000
000000
000000
000000
ENDCHAR
STARTCHAR C0057
ENCODING -1 87
SWIDTH 1120 0
DWIDTH 28 0
BBX 26 25 1 -5
BITMAP
00000000
00000000
00000000
FC0C0FC0
780C0780
300C0300
301E0300
181E0600
18330600
18330600
0C330C00
0C618C00
0C618C00
06619800
06C0D800
06C0D800
03807000
03807000
00000000
00000000
00000000
00000000
00000000
00000000
00000000
ENDCHAR
STARTCHAR C0058
ENCODING -1 88
SWIDTH 680 0
DWIDTH 17 0
BBX 15 25 1 -5
BITMAP
0000
0000
0000
FC7E
783C
3018
1830
0C60
06C0
0380
0380
0380
06C0
0C60
1830
3018
783C
FC7E
0000
0000
0000
0000
0000
0000
0000
ENDCHAR
STARTCHAR C0059
ENCODING -1 89
SWIDTH 720 0
DWIDTH 18 0
BBX 16 25 1 -5
BITMAP
0000
0000
0000
FC3F
781E
300C
1818
1818
0C30
0660
03C0
03C0
0180
0180
0180
0180
03C0
07E0
0000
0000
0000
0000
0000
0000
0000
ENDCHAR
STARTCHAR C005A
ENCODING -1 90
SWIDTH 560 0
DWIDTH 14 0
BBX 12 25 1 -5
BITMAP
0000
0000
0000
7FF0
7FF0
6030
4060
00C0
0180
0300
0600
0C00
1800
3010
6010
C030
FFF0
FFF0
0000
0000
0000
0000
0000
0000
0000
ENDCHAR
STARTCHAR C005B
ENCODING -1 91
SWIDTH 440 0
DWIDTH 11 0
BBX 7 25 2 -5
BITMAP
FE
FE
C0
C0
C0
C0
C0
C0
C0
C0
C0
C0
C0
C0
C0
C0
C0
C0
C0
C0
FE
FE
00
00
00
ENDCHAR
STARTCHAR C005C
ENCODING -1 92
SWIDTH 560 0
DWIDTH 14 0
BBX 12 25 1 -5
BITMAP
C000
C000
6000
6000
3000
3000
1800
1800
0C00
0C00
0600
0600
0300
0300
0180
0180
00C0
00C0
0060
0060
0030
0030
0000
0000
0000
ENDCHAR
STARTCHAR C005D
ENCODING -1 93
SWIDTH 440 0
DWIDTH 11 0
BBX 7 25 2 -5
BITMAP
FE
FE
06
06
06
06
06
06
06
06
06
06
06
06
06
06
06
06
06
06
FE
FE
00
00
00
ENDCHAR
STARTCHAR C005E
ENCODING -1 94
SWIDTH 480 0
DWIDTH 12 0
BBX 8 25 2 -5
BITMAP
00
00
00
00
00
18
18
3C
7E
DB
18
18
18
18
18
18
00
00
00
00
00
00
00
00
00
ENDCHAR
STARTCHAR C005F
ENCODING -1 95
SWIDTH 600 0
DWIDTH 15 0
BBX 11 25 2 -5
BITMAP
0000
0000
0000
0000
0000
0000
0000
0800
1800
3000
FFE0
FFE0
3000
1800
0800
0000
0000
0000
0000
0000
0000
0000
0000
0000
0000
ENDCHAR
STARTCHAR C0061
ENCODING -1 97
SWIDTH 520 0
DWIDTH 13 0
BBX 11 25 1 -5
BITMAP
0000
0000
0000
0000
0000
0000
0000
0F00
3F80
71C0
00C0
07C0
3FC0
70C0
E0C0
E1C0
7FE0
3EE0
0000
0000
0000
0000
0000
0000
0000
ENDCHAR
STARTCHAR C0062
ENCODING -1 98
SWIDTH 520 0
DWIDTH 13 0
BBX 11 25 1 -5
BITMAP
0000
0000
0000
F000
7000
3000
3000
3780
3FC0
38E0
3060
3060
3060
3060
3060
38E0
3FC0
3780
0000
0000
0000
0000
0000
0000
0000
ENDCHAR
STARTCHAR C0063
ENCODING -1 99
SWIDTH 480 0
DWIDTH 12 0
BBX 10 25 1 -5
BITMAP
0000
0000
0000
0000
0000
0000
0000
0F00
3FC0
70C0
6000
C000
C000
C000
6000
70C0
3FC0
0F00
0000
0000
0000
0000
0000
0000
0000
ENDCHAR
STARTCHAR C0064
ENCODING -1 100
SWIDTH 480 0
DWIDTH 12 0
BBX 11 25 1 -5
BITMAP
0000
0000
0000
0780
0380
0180
0180
3D80
7F80
E380
C180
C180
C180
C180
C180
E380
7FC0
3DE0
0000
0000
0000
0000
0000
0000
0000
ENDCHAR
STARTCHAR C0065
ENCODING -1 101
SWIDTH 480 0
DWIDTH 12 0
BBX 10 25 1 -5
BITMAP
0000
0000
0000
0000
0000
0000
0000
0E00
3F80
71C0
60C0
FFC0
FFC0
C000
C000
60C0
7F80
3F00
0000
0000
0000
0000
0000
0000
0000
ENDCHAR
STARTCHAR C0066
ENCODING -1 102
SWIDTH 400 0
DWIDTH 10 0
BBX 9 25 1 -5
BITMAP
0000
0000
0000
1F00
3F80
3180
3000
FC00
FC00
3000
3000
3000
3000
3000
3000
3000
7800
FC00
0000
0000
0000
0000
0000
0000
0000
ENDCHAR
STARTCHAR C0067
ENCODING -1 103
SWIDTH 520 0
DWIDTH 13 0
BBX 12 25 0 -5
BITMAP
0000
0000
0000
0000
0000
0030
0070
0FC0
1FC0
3060
3060
3FC0
1F80
3000
7000
3F80
3FE0
6070
C030
E070
7FE0
3FC0
0000
0000
0000
ENDCHAR
STARTCHAR C0068
ENCODING -1 104
SWIDTH 640 0
DWIDTH 16 0
BBX 14 25 1 -5
BITMAP
0000
0000
0000
F000
7000
3000
3000
37C0
3FE0
3870
3030
3030
3030
3030
3030
3030
7878
FCFC
0000
0000
0000
0000
0000
0000
0000
ENDCHAR
STARTCHAR C0069
ENCODING -1 105
SWIDTH 320 0
DWIDTH 8 0
BBX 6 25 1 -5
BITMAP
00
00
00
30
30
30
00
F0
70
30
30
30
30
30
30
30
78
FC
00
00
00
00
00
00
00
ENDCHAR
STARTCHAR C006A
ENCODING -1 106
SWIDTH 360 0
DWIDTH 9 0
BBX 8 25 0 -5
BITMAP
00
00
00
03
03
03
00
0F
07
03
03
03
03
03
03
03
03
63
E3
C7
7E
3C
00
00
00
ENDCHAR
STARTCHAR C006B
ENCODING -1 107
SWIDTH 600 0
DWIDTH 15 0
BBX 13 25 1 -5
BITMAP
0000
0000
0000
F000
7000
3000
3000
31F0
30E0
3180
3300
3600
3F00
3380
31C0
30E0
7870
FCF8
0000
0000
0000
0000
0000
0000
0000
ENDCHAR
STARTCHAR C006C
ENCODING -1 108
SWIDTH 320 0
DWIDTH 8 0
BBX 6 25 1 -5
BITMAP
00
00
00
F0
70
30
30
30
30
30
30
30
30
30
30
30
78
FC
00
00
00
00
00
00
00
ENDCHAR
STARTCHAR C006D
ENCODING -1 109
SWIDTH 800 0
DWIDTH 20 0
BBX 18 25 1 -5
BITMAP
000000
000000
000000
000000
000000
000000
000000
F79E00
7FFF00
39E700
30C300
30C300
30C300
30C300
30C300
30C300
78C780
FDEFC0
000000
000000
000000
000000
000000
000000
000000
ENDCHAR
STARTCHAR C006E
ENCODING -1 110
SWIDTH 600 0
DWIDTH 15 0
BBX 13 25 1 -5
BITMAP
0000
0000
0000
0000
0000
0000
0000
F780
7FC0
38E0
3060
3060
3060
3060
3060
3060
78F0
FDF8
0000
0000
0000
0000
0000
0000
0000
ENDCHAR
STARTCHAR C006F
ENCODING -1 111
SWIDTH 520 0
DWIDTH 13 0
BBX 11 25 1 -5
BITMAP
0000
0000
0000
0000
0000
0000
0000
0E00
3F80
71C0
E0E0
C060
C060
C060
E0E0
71C0
3F80
0E00
0000
0000
0000
0000
0000
0000
0000
ENDCHAR
STARTCHAR C0070
ENCODING -1 112
SWIDTH 520 0
DWIDTH 13 0
BBX 11 25 1 -5
BITMAP
0000
0000
0000
0000
0000
0000
0000
F780
7FC0
38E0
3060
3060
3060
3060
3060
38E0
3FC0
3780
3000
3000
7800
FC00
0000
0000
0000
ENDCHAR
STARTCHAR C0071
ENCODING -1 113
SWIDTH 520 0
DWIDTH 13 0
BBX 11 25 1 -5
BITMAP
0000
0000
0000
0000
0000
0000
0000
3DE0
7FC0
E380
C180
C180
C180
C180
C180
E380
7F80
3D80
0180
0180
03C0
07E0
0000
0000
0000
ENDCHAR
STARTCHAR C0072
ENCODING -1 114
SWIDTH 400 0
DWIDTH 10 0
BBX 9 25 1 -5
BITMAP
0000
0000
0000
0000
0000
0000
0000
F700
7F80
3B00
3000
3000
3000
3000
3000
3000
7800
FC00
0000
0000
0000
0000
0000
0000
0000
ENDCHAR
STARTCHAR C0073
ENCODING -1 115
SWIDTH 440 0
DWIDTH 11 0
BBX 9 25 1 -5
BITMAP
0000
0000
0000
0000
0000
0000
0000
1E80
3F80
6180
7000
3C00
1F00
8380
C180
E380
FF00
DE00
0000
0000
0000
0000
0000
0000
0000
ENDCHAR
STARTCHAR C0074
ENCODING -1 116
SWIDTH 320 0
DWIDTH 8 0
BBX 7 25 1 -5
BITMAP
00
00
00
00
10
30
30
FC
FC
30
30
30
30
30
30
32
3E
1C
00
00
00
00
00
00
00
ENDCHAR
STARTCHAR C0075
ENCODING -1 117
SWIDTH 600 0
DWIDTH 15 0
BBX 13 25 1 -5
BITMAP
0000
0000
0000
0000
0000
0000
0000
F1E0
70E0
3060
3060
3060
3060
3060
3060
38E0
1FF0
0F78
0000
0000
0000
0000
0000
0000
0000
ENDCHAR
STARTCHAR C0076
ENCODING -1 118
SWIDTH 640 0
DWIDTH 16 0
BBX 14 25 1 -5
BITMAP
0000
0000
0000
0000
0000
0000
0000
FCFC
7878
3030
3030
1860
1860
0CC0
0CC0
0480
0780
0300
0000
0000
0000
0000
0000
0000
0000
ENDCHAR
STARTCHAR C0077
ENCODING -1 119
SWIDTH 920 0
DWIDTH 23 0
BBX 21 25 1 -5
BITMAP
000000
000000
000000
000000
000000
000000
000000
FC21F8
7870F0
307060
305060
18D8C0
18D8C0
18D8C0
0D8D80
0D8D80
070700
070700
000000
000000
000000
000000
000000
000000
000000
ENDCHAR
STARTCHAR C0078
ENCODING -1 120
SWIDTH 600 0
DWIDTH 15 0
BBX 13 25 1 -5
BITMAP
0000
0000
0000
0000
0000
0000
0000
F8F8
7070
3060
18C0
0D80
0700
0F80
18C0
3060
7070
F8F8
0000
0000
0000
0000
0000
0000
0000
ENDCHAR
STARTCHAR C0079
ENCODING -1 121
SWIDTH 640 0
DWIDTH 16 0
BBX 14 25 1 -5
BITMAP
0000
0000
0000
0000
0000
0000
0000
FCFC
7878
3030
3030
1860
1860
0CC0
0CC0
0780
0780
0300
6300
C700
7E00
3C00
0000
0000
0000
ENDCHAR
STARTCHAR C007A
ENCODING -1 122
SWIDTH 480 0
DWIDTH 12 0
BBX 10 25 1 -5
BITMAP
0000
0000
0000
0000
0000
0000
0000
7FC0
7FC0
6180
4300
0600
0C00
1800
3040
60C0
FFC0
FFC0
0000
0000
0000
0000
0000
0000
0000
ENDCHAR
STARTCHAR C007B
ENCODING -1 123
SWIDTH 520 0
DWIDTH 13 0
BBX 9 25 2 -5
BITMAP
0780
0F80
1C00
1800
1800
1800
1800
1800
1800
3800
F000
F000
3800
1800
1800
1800
1800
1800
1800
1C00
0F80
0780
0000
0000
0000
ENDCHAR
STARTCHAR C007C
ENCODING -1 124
SWIDTH 240 0
DWIDTH 6 0
BBX 2 25 2 -5
BITMAP
C0
C0
C0
C0
C0
C0
C0
C0
C0
C0
C0
C0
C0
C0
C0
C0
C0
C0
C0
C0
C0
C0
00
00
00
ENDCHAR
STARTCHAR C007D
ENCODING -1 125
SWIDTH 520 0
DWIDTH 13 0
BBX 9 25 2 -5
BITMAP
F000
F800
1C00
0C00
0C00
0C00
0C00
0C00
0C00
0E00
0780
0780
0E00
0C00
0C00
0C00
0C00
0C00
0C00
1C00
F800
F000
0000
0000
0000
ENDCHAR
STARTCHAR C007E
ENCODING -1 126
SWIDTH 600 0
DWIDTH 15 0
BBX 13 25 1 -5
BITMAP
0000
0000
0000
0000
0000
0000
0000
0000
0000
1C18
3F30
67E0
C1C0
0000
0000
0000
0000
0000
0000
0000
0000
0000
0000
0000
0000
ENDCHAR
ENDFONT
